<svg xmlns="http://www.w3.org/2000/svg" xmlns:xlink="http://www.w3.org/1999/xlink" version="1.1" id="Layer_1" x="0px" y="0px" viewBox="0 0 512 512" style="enable-background:new 0 0 512 512;" xml:space="preserve" width="512" height="512" class=""><g><polygon style="fill:#747474" points="222.609,411.826 222.609,512 256,512 267.13,411.826 " data-original="#134A79" class="" data-old_color="#737374"></polygon><g>
	<rect x="256" y="411.826" style="fill:#383939" width="33.391" height="100.174" data-original="#092339" class="" data-old_color="#393A3A"></rect>
	<rect x="356.174" y="411.826" style="fill:#383939" width="66.783" height="100.174" data-original="#092339" class="" data-old_color="#393A3A"></rect>
</g><rect x="89.043" y="411.826" style="fill:#747474" width="66.783" height="100.174" data-original="#134A79" class="" data-old_color="#737374"></rect><polygon style="fill:#C0C1C3" points="258.283,411.826 278.261,217.043 256,0 254.887,0 0,431.861 0,434.087 105.739,434.087   122.435,411.826 139.13,434.087 239.304,434.087 " data-original="#77AAD4" class="" data-old_color="#B8B9BB"></polygon><polygon style="fill:#A5A5A5" points="257.113,0 256,0 256,411.826 272.696,434.087 372.87,434.087 389.565,411.826   406.261,434.087 512,434.087 512,431.861 " data-original="#4A8EC6" class="active-path" data-old_color="#9A9999"></polygon><rect x="372.87" y="356.174" style="fill:#D2D2D3" width="33.391" height="77.913" data-original="#A4C6E2" class="" data-old_color="#E0E0E1"></rect><rect x="239.304" y="356.174" style="fill:#E6E6E6" width="33.391" height="77.913" data-original="#D2E3F1" class="" data-old_color="#E5E5E6"></rect><g>
	<rect x="239.304" y="286.431" style="fill:#747474" width="33.391" height="33.391" data-original="#134A79" class="" data-old_color="#737374"></rect>
	<rect x="306.087" y="286.431" style="fill:#747474" width="33.391" height="33.391" data-original="#134A79" class="" data-old_color="#737374"></rect>
</g><rect x="172.522" y="286.431" style="fill:#A6A6A7" width="33.391" height="33.391" data-original="#1D71B8" class="" data-old_color="#A5A5A7"></rect><rect x="105.739" y="356.174" style="fill:#E6E6E6" width="33.391" height="77.913" data-original="#D2E3F1" class="" data-old_color="#E5E5E6"></rect><polygon style="fill:#FFFFFF" points="255.13,130.977 194.692,233.377 256,233.377 267.13,182.177 256,130.977 " data-original="#FFFFFF" class=""></polygon><polygon style="fill:#D3D3D3" points="256.87,130.977 256,130.977 256,233.377 317.308,233.377 " data-original="#FAC15C" class="" data-old_color="#D3D2D2"></polygon></g> </svg>